<?xml version="1.0" standalone="no"?><!DOCTYPE svg PUBLIC "-//W3C//DTD SVG 1.1//EN" "http://www.w3.org/Graphics/SVG/1.1/DTD/svg11.dtd"><svg t="1532413195880" class="icon" style="" viewBox="0 0 1024 1024" version="1.1" xmlns="http://www.w3.org/2000/svg" p-id="16055" xmlns:xlink="http://www.w3.org/1999/xlink" width="120" height="120"><defs><style type="text/css"></style></defs><path d="M166.956522 1024V378.434783c0-111.304348 22.26087-200.347826 89.043478-267.130435 44.521739-66.782609 133.565217-111.304348 244.869565-111.304348 89.043478 0 155.826087 22.26087 222.608696 89.043478 44.521739 44.521739 89.043478 111.304348 89.043478 200.347826 0 22.26087-22.26087 66.782609-44.521739 111.304348 0 22.26087-44.521739 66.782609-66.782609 89.043478 44.521739 22.26087 89.043478 44.521739 111.304348 89.043479s44.521739 89.043478 44.521739 155.826087c0 89.043478-22.26087 155.826087-89.043478 200.347826-66.782609 66.782609-155.826087 89.043478-244.869565 89.043478H345.043478v-133.565217h178.086957c44.521739 0 111.304348 0 133.565217-44.52174 44.521739-22.26087 66.782609-66.782609 66.782609-111.304347 0-66.782609-22.26087-89.043478-66.782609-133.565218-22.26087-22.26087-89.043478-44.521739-133.565217-44.521739H345.043478v-111.304348h133.565218c44.521739 0 111.304348-22.26087 133.565217-44.521739 44.521739-22.26087 66.782609-66.782609 66.782609-111.304348s-22.26087-89.043478-66.782609-111.304347c-22.26087-44.521739-66.782609-44.521739-111.304348-44.52174-66.782609 0-111.304348 0-155.826087 44.52174-22.26087 44.521739-44.521739 89.043478-44.521739 178.086956v667.826087H166.956522z" p-id="16056" fill="#1296db"></path></svg>