<?xml version="1.0" standalone="no"?><!DOCTYPE svg PUBLIC "-//W3C//DTD SVG 1.1//EN" "http://www.w3.org/Graphics/SVG/1.1/DTD/svg11.dtd"><svg t="1533030114252" class="icon" style="" viewBox="0 0 1024 1024" version="1.1" xmlns="http://www.w3.org/2000/svg" p-id="2147" xmlns:xlink="http://www.w3.org/1999/xlink" width="48" height="48"><defs><style type="text/css"></style></defs><path d="M961.4 82H63c-19.3 0-35 15.7-35 35v517.1c0 0.8 0 1.7 0.1 2.5-0.1 0.8-0.1 1.7-0.1 2.5 0 19.3 15.7 35 35 35h472.3l267.1 267.1c3 3 6.4 5.3 10 7 5 2.8 10.8 4.4 17 4.4 19.3 0 35-15.7 35-35V674.1h92.1c11 0 20.9-5.1 27.3-13.1 7.7-6.4 12.6-16.1 12.6-26.9V117c0-19.3-15.6-35-35-35z m-132 522.1c-19.3 0-35 15.7-35 35v195.1L577.2 617.1c-6.4-7.9-16.2-13-27.2-13H98V152h828.5v452.1h-97.1z" p-id="2148" fill="#1296db"></path><path d="M267.8 310.4c-30.8 0-55.7 25-55.7 55.7 0 30.8 25 55.7 55.7 55.7 30.8 0 55.7-25 55.7-55.7 0.1-30.8-24.9-55.7-55.7-55.7zM504.1 312c-30.8 0-55.7 25-55.7 55.7 0 30.8 25 55.7 55.7 55.7 30.8 0 55.7-25 55.7-55.7 0-30.7-24.9-55.7-55.7-55.7zM740.3 312c-30.8 0-55.7 25-55.7 55.7 0 30.8 25 55.7 55.7 55.7 30.8 0 55.7-25 55.7-55.7 0.1-30.7-24.9-55.7-55.7-55.7z" p-id="2149" fill="#1296db"></path></svg>