<?xml version="1.0" standalone="no"?><!DOCTYPE svg PUBLIC "-//W3C//DTD SVG 1.1//EN" "http://www.w3.org/Graphics/SVG/1.1/DTD/svg11.dtd"><svg t="1530526479300" class="icon" style="" viewBox="0 0 1024 1024" version="1.1" xmlns="http://www.w3.org/2000/svg" p-id="1211" xmlns:xlink="http://www.w3.org/1999/xlink" width="120" height="120"><defs><style type="text/css"></style></defs><path d="M742.023238 1010.912471l-13.880713 13.087529-327.188226-345.034857-141.186677-148.721921-70.593338-74.559256-35.29667-37.279628-17.450038-18.639814-8.72502-9.121612-4.36251-4.759101-1.189775-1.189775c-0.396592-0.396592 0.396592 0 0.396592 0h3.965918l198.295894-7.931836 99.147948-3.965918 49.573973-1.982959h84.870643l26.968242-1.982959 6.74206-0.396592 3.569327-0.396592h0.793183c0.793184-0.396592 1.586367-0.396592 1.982959-0.793183 0.793184-0.396592 1.586367-0.396592 2.379551-0.793184 0.793184-0.396592 1.586367-0.396592 1.982959-0.793183 5.155693-2.379551 9.914795-5.552285 14.673896-8.72502 3.965918-3.965918 8.328428-7.931836 11.501162-12.690937 0.793184-1.189775 1.189775-2.379551 2.379551-3.569326 0.396592-0.793184 0.793184-1.189775 1.189775-1.586367 0.396592-0.793184 0.396592-1.189775 0.793184-1.982959 0.396592-1.189775 1.189775-2.379551 1.982958-3.569326 0.396592-1.189775 0.793184-2.776143 1.189776-3.965918 0.793184-1.189775 0.793184-2.776143 1.189775-3.965918 0-0.793184 0.396592-1.189775 0.396592-1.982959 0.396592-0.793184 0.396592-1.189775 0.396592-1.982959 0-1.586367 0.396592-2.776143 0.793183-4.36251l0.396592-1.189775v-1.189775-1.982959-4.36251c0-1.586367-0.396592-2.776143-0.396592-4.36251 0-0.793184 0-1.586367-0.396591-1.982959 0-0.793184-0.396592-1.189775-0.396592-1.982958-0.396592-1.189775 0-2.776143-0.793184-3.965918-0.396592-1.189775-0.793184-2.776143-0.793183-3.965918-0.396592-1.189775-1.189775-2.379551-1.586368-3.965918-0.396592-0.793184-0.396592-1.189775-0.793183-1.982959l-1.189775-1.982959c-0.793184-1.189775-1.189775-2.379551-1.586368-3.965918-2.776143-4.759101-6.345469-9.518203-10.311386-13.484121-1.189775-1.189775-2.379551-1.982959-3.172734-2.776142l-1.586368-1.586367c-0.793184-0.396592-1.189775-0.793184-1.982959-1.189776-1.189775-0.793184-2.379551-1.982959-3.569326-2.776142-1.189775-0.793184-2.379551-1.189775-3.569326-1.982959-5.155693-2.379551-9.914795-5.155693-15.46708-5.948877-0.793184 0-1.189775-0.396592-1.982959-0.793184l-1.982958-0.396592c-1.586367 0-2.776143-0.396592-4.36251-0.793183H314.893881v-19.036406H581.006971c1.982959 0 3.569326 0.396592 5.552285 0 1.982959 0.396592 3.569326 0.793184 5.552285 0.793184l2.776143 0.396591 2.776142 0.793184c7.138652 1.189775 13.880713 4.759101 20.622774 7.931836 1.586367 1.189775 3.172734 1.982959 4.759101 2.776142 1.586367 0.793184 2.776143 2.379551 4.36251 3.172735l2.37955 1.586367 1.982959 1.982959c1.189775 1.189775 2.776143 2.379551 4.36251 3.569326 5.155693 5.552285 9.518203 11.501162 13.484121 17.84663 0.793184 1.586367 1.586367 3.569326 2.379551 5.155694l1.189775 2.37955 0.793184 2.776143c0.396592 1.586367 1.586367 3.569326 1.982959 5.155693 0.396592 1.982959 0.793184 3.569326 1.189775 5.552285 0.793184 1.586367 0.793184 3.569326 0.793183 5.552285l0.396592 2.776143c0.396592 0.793184 0.396592 1.982959 0.396592 2.776142 0 1.982959 0 3.569326 0.396592 5.552285v3.172735l-0.396592 2.776142v4.36251l-0.396592 1.189775c-0.396592 1.982959-0.793184 3.569326-0.793183 5.552285 0 0.793184-0.396592 1.982959-0.793184 2.776143l-0.793183 2.776142c-0.396592 1.586367-0.793184 3.569326-1.586368 5.155694s-1.189775 3.569326-1.982959 5.155693-1.586367 3.172734-2.37955 5.155693l-1.189776 2.379551-1.586367 2.379551c-1.189775 1.586367-1.586367 3.172734-2.776142 4.759101-4.36251 6.345469-9.518203 11.501162-15.070488 16.656855-5.948877 4.36251-12.294345 8.725019-19.036406 11.501162-0.793184 0.396592-1.586367 0.793184-2.776143 1.189775l-2.776142 0.793184-2.776143 1.189775h-0.396592-0.396591l-3.172735 0.396592-6.345468 0.396592-24.588691 1.982959c-8.725019 0.396592-17.450039 0.396592-26.175058 0.396592H488.997676l-46.004647 1.586367-91.612704 3.172734-183.225406 6.345469H164.585593 164.189001l1.189775 1.189775 3.965918 4.36251 8.328428 8.725019 16.260263 17.053447 32.520527 34.503486L291.098373 535.795507l130.082107 137.220759 320.842758 337.896205z" fill="#1296db" p-id="1212"></path><path d="M755.507359 997.824942l-13.880713 13.087529-320.446166-337.896205L291.098373 535.795507l-65.041053-68.610379-32.520527-34.503486-16.260263-17.053447-8.328428-8.725019-3.965918-4.36251-1.189775-1.189775c-0.396592-0.396592 0.396592 0 0.396592 0H167.758327l183.621998-6.742061 91.612704-3.172734 46.401239-1.586367h51.953524c8.725019 0 17.450039 0 26.175059-0.396592l24.58869-1.982959 6.345469-0.396592 3.172734-0.396591h0.793184l2.776142-1.189776 2.776143-0.793183c0.793184-0.396592 1.982959-0.396592 2.776143-1.189776 6.74206-2.776143 13.087529-7.138652 19.036405-11.501162 5.552285-5.155693 10.707978-10.311387 15.070488-16.656855 1.189775-1.586367 1.982959-3.172734 2.776143-4.759101l1.586367-2.379551 1.189775-2.379551c0.793184-1.586367 1.586367-3.172734 2.379551-5.155693 0.396592-1.586367 1.189775-3.569326 1.982959-5.155693s1.189775-3.569326 1.586367-5.155694l0.793184-2.776142c0.396592-0.793184 0.793184-1.586367 0.793183-2.776143 0-1.982959 0.396592-3.569326 0.793184-5.552285l0.396592-1.189775v-4.36251l0.396592-2.776142v-3.172734c0-1.982959-0.396592-3.569326-0.396592-5.552286 0-0.793184 0-1.982959-0.396592-2.776142l-0.396592-2.776143c-0.396592-1.982959-0.396592-3.569326-0.793183-5.552285-0.396592-1.586367-0.793184-3.569326-1.189776-5.552285-0.396592-1.586367-1.189775-3.569326-1.982959-5.155693l-0.793183-2.776142-1.189776-2.379551c-0.793184-1.586367-1.586367-3.172734-2.37955-5.155693-3.965918-6.345469-8.328428-12.294345-13.484121-17.846631-1.189775-1.189775-2.776143-2.379551-4.36251-3.569326l-1.982959-1.982959-2.379551-1.586367c-1.586367-1.189775-2.776143-2.379551-4.362509-3.172735-1.586367-0.793184-3.172734-1.982959-4.759102-2.776142-6.74206-3.172734-13.087529-6.74206-20.622773-7.931836l-2.776142-0.793183-2.776143-0.396592c-1.982959-0.396592-3.569326-0.396592-5.552285-0.793184H314.893881V210.193648H581.006971c2.379551 0 4.759101 0.396592 7.138653 0.396592 2.379551 0.396592 4.36251 0.793184 6.74206 1.189775l3.569326 0.396592 3.172734 0.793184c9.121611 1.586367 17.450039 5.948877 25.381875 9.914795l5.948877 3.569326c1.982959 1.189775 3.569326 2.776143 5.552285 3.965918l2.776142 1.982959 2.379551 2.37955c1.586367 1.586367 3.569326 3.172734 5.155693 4.759102 6.345469 6.74206 11.897754 14.277304 16.656855 22.20914 1.189775 1.982959 1.982959 3.965918 2.776143 6.345469l1.586367 3.172734 1.189776 3.172734c0.793184 1.982959 1.586367 4.36251 2.37955 6.345469 0.396592 2.379551 1.189775 4.36251 1.586367 6.74206 0.793184 1.982959 0.793184 4.36251 1.189776 6.742061l0.396592 3.569326c0.396592 1.189775 0.396592 2.379551 0.396591 3.569326 0 2.379551 0 4.759101 0.396592 7.138652v3.172734l-0.396592 3.569327v5.155693l-0.396591 1.586367c-0.396592 2.379551-0.793184 4.36251-1.189776 6.74206 0 1.189775-0.396592 2.379551-0.793183 3.172735l-0.793184 3.172734c-0.396592 2.379551-0.793184 4.36251-1.982959 6.74206-0.793184 1.982959-1.586367 4.36251-2.379551 6.345469-1.189775 1.982959-1.982959 3.965918-3.172734 6.345469-0.396592 1.189775-0.793184 1.982959-1.586367 3.172734l-1.982959 2.776142-3.569326 5.948877c-5.155693 7.535244-11.897754 14.277304-18.639814 20.226182-7.535244 5.552285-15.070488 10.707978-23.398916 14.277304-0.793184 0.793184-1.982959 0.793184-3.172734 1.189775l-3.569326 1.189776-3.172735 1.189775H604.405887l-5.552285 0.396592-22.605732 2.379551c-7.931836 0.396592-15.863672 0.396592-23.795507 0.793183l-11.897754 0.396592h-11.897754l-23.398915 0.396592-42.03873 1.189775-84.474051 2.776143-168.948102 5.552285H206.22773h-0.396591l0.793183 0.793183 3.569326 3.965918 7.535244 7.931836 15.070488 15.863672 29.744385 31.330751 59.488768 63.058094 119.374129 125.719598 314.100697 330.757552z" fill="#1296db" p-id="1213"></path><path d="M769.388071 984.737413l-13.880712 13.087529-313.307514-330.360961L322.825716 541.744384l-59.488768-63.058094-29.744384-31.330752-15.070488-15.863671-7.535244-7.931836-3.569326-3.965918-0.793184-0.793183c-0.396592-0.396592 0.396592 0 0.396592 0H210.59024l168.948102-5.552286 84.474051-2.776142 42.03873-1.189775 23.398916-0.396592h11.897753l11.897754-0.396592c7.931836-0.396592 15.863672-0.396592 23.795507-0.793184l22.605732-2.37955 5.552285-0.396592 2.776143-0.396592H609.164988l3.172735-1.189775 3.569326-1.189776c1.189775-0.396592 2.379551-0.793184 3.172734-1.189775 8.328428-3.569326 16.260263-8.725019 23.398916-14.277304 6.74206-6.345469 13.484121-12.690937 18.639814-20.226182 1.586367-1.982959 2.379551-3.965918 3.569326-5.948877l1.982959-2.776142c0.396592-0.793184 0.793184-1.982959 1.586367-3.172734 0.793184-1.982959 1.982959-3.965918 3.172734-6.345469 0.793184-1.982959 1.586367-4.36251 2.379551-6.345469 1.189775-1.982959 1.189775-4.36251 1.982959-6.74206l0.793184-3.172734c0.396592-1.189775 0.793184-2.379551 0.793183-3.172735 0.396592-2.379551 0.793184-4.36251 1.189776-6.74206l0.396591-1.586367v-5.155693l0.396592-3.569327v-3.172734c0-2.379551-0.396592-4.759101-0.396592-7.138652 0-1.189775 0-2.379551-0.396591-3.569326l-0.396592-3.569326c-0.396592-2.379551-0.396592-4.759101-1.189776-6.742061-0.793184-2.379551-1.189775-4.36251-1.586367-6.74206-0.793184-2.379551-1.586367-4.36251-2.379551-6.345469l-1.189775-3.172734-1.586367-3.172734c-1.189775-1.982959-1.982959-3.965918-2.776143-6.345469-4.759101-7.931836-9.914795-15.46708-16.656855-22.20914-1.586367-1.586367-3.569326-3.172734-5.155693-4.759102l-2.379551-2.37955-2.776142-1.982959c-1.982959-1.189775-3.569326-2.776143-5.552285-3.965918l-5.948877-3.569326c-7.931836-4.36251-16.260263-8.328428-25.381875-9.914795l-3.172734-0.793184-3.569326-0.396592c-2.379551-0.396592-4.36251-0.793184-6.742061-1.189775-2.379551 0-4.759101 0-7.138652-0.396592H314.893881v-19.829589h262.543764c1.586367 0 2.776143 0 4.36251 0.396592 2.776143 0 5.552285 0.396592 8.328427 0.396591l7.931836 1.189776 3.965918 0.396592 3.965918 1.189775c10.707978 1.982959 20.622773 6.74206 30.140976 11.897754 2.379551 1.586367 4.759101 2.776143 7.138652 4.362509 2.379551 1.586367 4.36251 3.172734 6.742061 4.759102l3.172734 2.379551 3.172734 2.776142c1.982959 1.982959 3.965918 3.569326 5.948877 5.552285 7.535244 7.931836 14.277304 16.656855 19.432998 26.175058 1.189775 2.379551 2.379551 4.759101 3.569326 7.535244l1.982959 3.569326 1.189775 3.965918c0.793184 2.776143 1.982959 5.155693 2.776143 7.535244 0.793184 2.776143 1.189775 5.155693 1.982959 7.931836s1.189775 5.552285 1.586367 7.931836l0.793183 3.965918c0.396592 1.189775 0.396592 2.776143 0.396592 3.965918 0 2.776143 0.396592 5.552285 0.396592 8.328427v3.965918l-0.396592 3.965918v5.948877l-0.396592 1.982959c-0.396592 2.776143-0.793184 5.552285-1.189775 7.931835 0 1.189775-0.396592 2.776143-0.793183 3.965918l-1.189776 3.965918c-0.793184 2.776143-1.189775 5.155693-2.379551 7.931836-0.793184 2.379551-1.982959 5.155693-2.776142 7.535244l-3.569326 7.535244c-0.793184 1.189775-1.189775 2.379551-1.586367 3.569326l-2.379551 3.569326c-1.586367 2.379551-2.776143 4.759101-4.36251 7.138652-6.345469 9.121611-13.880713 17.053447-22.20914 24.1921-8.725019 6.74206-17.846631 12.690937-27.761425 17.053447-1.189775 0.793184-2.379551 1.189775-3.965918 1.586367l-3.965918 1.586367-3.965918 1.586367c-0.396592 0-0.396592 0.396592-1.189775 0.396592l-2.379551 0.396592-5.155693 0.793183-20.226182 2.379551c-7.138652 0.396592-14.277304 0.793184-21.415956 0.793184l-10.707978 0.396591h-10.707979l-21.019365 0.396592-38.469403 1.189775-76.145624 2.776143-154.274206 4.36251h-3.172734-0.396592l0.793184 0.793183 3.569326 3.569326 6.74206 7.138653 13.484121 14.277304 26.968242 28.554609L354.55306 547.296669l108.66615 114.615027 306.168861 322.825717z" fill="#1296db" p-id="1214"></path><path d="M783.268784 971.649884l-13.880713 13.087529-306.565453-323.222308L354.55306 547.296669l-54.333075-57.109217-26.968242-28.554609-13.484121-14.277305-6.74206-7.138652-3.569327-3.569326-0.793183-0.793184c-0.396592-0.396592 0.396592 0 0.396592 0h3.172734l154.274206-4.362509 76.938807-1.982959 38.469404-1.189776 21.019365-0.396591h10.707978l10.707978-0.396592c7.138652-0.396592 14.277304-0.396592 21.415957-0.793184l20.226181-2.37955 5.155693-0.793184 2.379551-0.396592c0.793184 0 0.793184-0.396592 1.189775-0.396592l3.965918-1.586367 3.965918-1.586367c1.189775-0.396592 2.776143-0.793184 3.965918-1.586367 9.914795-4.36251 19.036406-10.311387 27.761425-17.053447 8.328428-7.138652 15.863672-15.070488 22.209141-24.192099 1.586367-1.982959 2.776143-4.759101 4.362509-7.138652l2.379551-3.569326c0.793184-1.189775 1.189775-2.379551 1.586367-3.569327l3.569326-7.535244c0.793184-2.776143 1.982959-5.155693 2.776143-7.535244 1.189775-2.379551 1.586367-5.155693 2.379551-7.931835l1.189775-3.965918c0.396592-1.189775 0.793184-2.776143 0.793183-3.965918 0.396592-2.776143 0.793184-5.552285 1.189776-7.931836l0.396592-1.982959v-5.948877l0.396591-3.965918v-3.965917c0-2.776143-0.396592-5.552285-0.396591-8.328428 0-1.586367 0-2.776143-0.396592-3.965918l-0.793184-3.965918c-0.396592-2.776143-0.396592-5.552285-1.586367-7.931836-0.793184-2.776143-1.189775-5.155693-1.982959-7.931835s-1.982959-5.155693-2.776142-7.535244l-1.189776-3.965918-1.982959-3.569326c-1.189775-2.379551-2.379551-5.155693-3.569326-7.535244-5.552285-9.518203-11.897754-18.243222-19.432997-26.175059-1.982959-1.982959-3.965918-3.569326-5.948877-5.552285l-3.172735-2.776142-3.172734-2.379551c-2.379551-1.586367-4.36251-3.569326-6.74206-4.759101-2.379551-1.189775-4.759101-2.776143-7.138653-4.36251-9.518203-5.155693-19.432998-9.914795-30.140976-11.897754l-3.965917-1.189775-3.965918-0.396592-7.931836-1.189775c-2.776143 0-5.552285 0-8.328428-0.396592-1.586367 0-2.379551-0.396592-4.362509-0.396592H314.893881v-19.036406h262.543764c1.982959 0 3.172734 0 4.759102 0.396592l9.518203 0.396592 9.518203 1.586367 4.759101 0.793184 4.759102 1.189775c12.294345 2.379551 24.192099 7.931836 35.296669 13.880713l8.328427 4.759101c2.776143 1.586367 5.155693 3.965918 7.535244 5.552285l3.965918 2.776143 3.569326 3.172734c2.379551 2.379551 4.759101 4.36251 7.138653 6.345469 8.725019 9.121611 16.260263 19.432998 22.605732 30.537567 1.586367 2.776143 2.776143 5.552285 3.965917 8.72502l1.982959 4.362509 1.586368 4.36251c1.189775 3.172734 2.379551 5.948877 3.172734 9.121611l2.379551 9.121611c1.189775 3.172734 1.189775 6.345469 1.586367 9.518203l0.793183 4.759102c0.396592 1.586367 0.396592 3.172734 0.396592 4.759101l0.396592 9.518203v4.759102l-0.396592 4.759101-0.396592 4.759102v2.37955l-0.396591 2.379551-1.586368 9.518203c0 1.586367-0.793184 3.172734-1.189775 4.759102l-1.189775 4.759101c-0.793184 3.172734-1.586367 6.345469-2.776143 9.121611l-3.172734 9.121611-3.965918 8.72502c-0.793184 1.586367-1.189775 2.776143-1.982959 4.362509l-2.379551 3.965918c-1.586367 2.776143-3.172734 5.552285-5.155693 7.931836-7.138652 10.311387-16.260263 19.829589-25.778466 28.158017-9.914795 7.931836-20.622773 14.673896-32.520527 19.82959-1.189775 0.793184-2.776143 1.189775-4.36251 1.982959l-4.362509 1.586367-4.36251 1.586367c-0.396592 0-0.793184 0.396592-1.189775 0.396592l-2.379551 0.396591-4.36251 0.793184-17.84663 2.776143c-6.345469 0.396592-12.690937 0.793184-18.639814 1.189775l-9.518203 0.396592-9.518203 0.396591-18.639814 0.396592-34.900078 0.793184-69.800155 1.586367-138.807126 0.396592h-2.379551-0.396592l0.793184 0.793183 3.172734 3.172735 5.948877 6.345468 12.294346 12.690938 24.58869 25.778466 48.780791 51.556933 97.56158 103.113865 299.030209 316.083656z" fill="#1296db" p-id="1215"></path><path d="M797.149497 958.562355l-13.880713 13.087529-299.426801-315.687064-97.56158-103.113866-48.78079-51.556932-24.588691-25.778467-12.294346-12.690937-5.948877-6.345469-3.172734-3.172734-0.793183-0.793183c-0.396592-0.396592 0.396592 0 0.396591 0h2.379551l139.203718-3.172735 69.800155-1.586367 34.900078-0.793183 18.639814-0.396592 9.518203-0.396592 9.518203-0.396592c6.345469-0.396592 12.690937-0.793184 18.639814-1.189775l17.84663-2.776143 4.36251-0.793183 2.379551-0.396592c0.793184 0 0.793184-0.396592 1.189775-0.396592l4.36251-1.586367 4.362509-1.586367c1.586367-0.396592 3.172734-1.189775 4.36251-1.982959 11.501162-5.155693 22.20914-11.897754 32.520527-19.82959 9.518203-8.328428 18.243222-17.450039 25.778466-28.158017 1.982959-2.379551 3.172734-5.552285 5.155693-7.931835l2.379551-3.965918c0.793184-1.189775 1.189775-2.776143 1.982959-4.36251l3.965918-8.725019 3.172734-9.121612c1.189775-2.776143 1.982959-5.948877 2.776143-9.121611l1.189775-4.759101 1.189775-4.759102 1.586368-9.518203 0.396591-2.37955v-2.379551l0.396592-4.759101 0.396592-4.759102v-4.759101l-0.396592-9.518203c0-1.586367-0.396592-3.172734-0.396592-4.759102l-0.793183-4.759101c-0.396592-3.172734-0.793184-6.345469-1.586367-9.518203l-2.379551-9.121611c-0.793184-3.172734-2.379551-5.948877-3.172734-9.121612l-1.586368-4.362509-1.982959-4.36251c-1.586367-2.776143-2.776143-5.948877-3.965917-8.725019-6.345469-11.10457-13.880713-21.415957-22.605732-30.537568-2.379551-2.379551-4.759101-4.36251-7.138653-6.345469l-3.569326-3.172734-3.965918-2.776143c-2.776143-1.982959-5.155693-3.965918-7.535244-5.552285l-8.328427-4.759101c-11.10457-5.948877-22.605732-11.501162-35.296669-13.880713l-4.759102-1.189775-4.759101-0.793184-9.518203-1.586367-9.518203-0.396592c-1.586367 0-3.172734-0.396592-4.759102-0.396591H314.893881v-19.036406h262.543764c1.982959 0 3.569326 0 5.552285 0.396592l10.707979 0.396591 10.707978 1.586367 5.552285 0.793184 5.155693 1.189775c14.277304 3.172734 27.364833 9.121611 40.055771 15.863672l9.121611 5.552285c3.172734 1.982959 5.948877 4.36251 8.725019 6.345469l4.36251 3.172734 3.965918 3.569326c2.776143 2.379551 5.552285 4.759101 7.931836 7.535244 9.914795 10.311387 18.639814 22.20914 25.778466 34.503486 1.586367 3.172734 3.172734 6.345469 4.759102 9.914794l2.37955 4.759102 1.982959 5.155693c1.189775 3.569326 2.776143 6.74206 3.569326 10.311387l2.776143 10.311386c1.189775 3.569326 1.189775 7.138652 1.982959 10.707979l0.793183 5.155693c0.396592 1.586367 0.396592 3.569326 0.396592 5.552285l0.396592 10.707978v5.552285l-0.396592 5.552285-0.396592 5.552285v2.776143l-0.396591 2.776142-1.586368 10.707979c0 1.982959-0.793184 3.569326-1.189775 5.155693l-1.189775 5.155693c-0.793184 3.569326-1.586367 7.138652-3.172735 10.311387l-3.569326 10.311386-4.759101 9.914795-2.379551 4.759101-2.776142 4.759102c-1.982959 3.172734-3.569326 6.345469-5.948877 9.121611-8.328428 11.897754-18.243222 22.605732-29.347793 31.727343-11.501162 8.725019-23.398916 16.656855-36.883036 22.605732-1.586367 0.793184-3.172734 1.586367-5.155693 1.982959l-5.155694 1.982959-5.155693 1.982959c-0.396592 0-0.793184 0.396592-1.189775 0.396592l-1.982959 0.396592-3.965918 0.793183-15.863672 2.776143c-5.552285 0.793184-10.707978 1.189775-16.260263 1.586367l-8.328428 0.793183-8.328427 0.396592-16.260263 0.396592-31.330752 0.396592-62.264911 0.793183-124.529822 1.982959h-2.776142l0.793183 0.793184 2.776143 2.776142 5.552285 5.552286 10.707978 11.501161 21.812549 23.002324 43.228505 45.608056 86.853602 91.612703 293.874516 309.738188z" fill="#1296db" p-id="1216"></path><path d="M811.030209 945.474826l-13.880712 13.087529-292.684741-308.548412-86.853602-91.612704L374.382649 512.793184l-21.812548-23.002324-10.707979-11.501162-5.552285-5.552285-2.776142-2.776143-0.793184-0.793183h2.776143l124.529822-1.982959 62.264911-0.793184 31.330751-0.396592 16.260263-0.396591 8.328428-0.396592 8.328427-0.793184c5.552285-0.396592 11.10457-0.793184 16.260264-1.586367l15.863671-2.776142 3.965918-0.793184 1.982959-0.396592c0.793184 0 0.793184-0.396592 1.189776-0.396592l5.155693-1.982959 5.155693-1.982958c1.586367-0.793184 3.569326-1.189775 5.155693-1.982959 13.087529-5.948877 25.381875-13.880713 36.883037-22.605732 10.707978-9.518203 21.019365-19.829589 29.347792-31.727344 1.982959-2.776143 3.965918-5.948877 5.948877-9.121611l2.776142-4.759101 2.379551-4.759102 4.759102-9.914794 3.569326-10.311387c1.586367-3.172734 2.379551-6.74206 3.172734-10.311386l1.189775-5.155694c0.396592-1.586367 0.793184-3.569326 1.189776-5.155693l1.586367-10.707978 0.396592-2.776143v-2.776142l0.396592-5.552285 0.396591-5.552285v-5.552285l-0.396591-10.707979c0-1.982959-0.396592-3.569326-0.396592-5.552285l-0.793184-5.155693c-0.793184-3.569326-0.793184-7.138652-1.982959-10.707978l-2.776142-10.311387c-1.189775-3.569326-2.379551-6.74206-3.569326-10.311386l-1.982959-5.155694-2.379551-4.759101c-1.586367-3.172734-3.172734-6.74206-4.759102-9.914795-7.138652-12.690937-15.863672-24.192099-25.778466-34.503486-2.379551-2.776143-5.155693-4.759101-7.931836-7.535244l-3.965917-3.569326-4.36251-3.172734c-2.776143-1.982959-5.552285-4.36251-8.72502-6.345469l-9.121611-5.552285c-12.690937-6.74206-25.778466-12.690937-40.05577-15.863671l-5.155694-1.189776-5.552285-0.793183-10.707978-1.586367-10.707978-0.396592c-1.982959 0-3.569326-0.396592-5.552285-0.396592H314.893881v-19.036406h262.543764l5.948877 0.396592 12.294346 0.793184 11.897753 1.982959 5.948877 0.793183 5.948877 1.586367c15.863672 3.569326 30.93416 9.914795 45.211464 17.846631l10.311386 6.345468c3.569326 2.379551 6.345469 4.759101 9.914795 7.138653l4.759102 3.569326 4.362509 3.965918c2.776143 2.776143 5.948877 5.552285 8.72502 8.328427 11.10457 11.501162 21.019365 24.588691 28.9512 38.865996 1.982959 3.569326 3.569326 7.138652 5.155694 11.10457l2.776142 5.552285 1.982959 5.552285c1.189775 3.965918 2.776143 7.535244 3.965918 11.501162l3.172734 11.897753c1.189775 3.965918 1.586367 7.931836 2.379551 11.897754l0.793184 5.948877c0.396592 1.982959 0.793184 3.965918 0.793183 5.948877l0.793184 12.294345v6.345469l-0.396592 5.948877-0.396592 5.948876v3.172735l-0.396592 3.172734-1.982959 11.897754-1.189775 5.948877-1.586367 5.948876c-1.189775 3.965918-1.982959 7.931836-3.569326 11.501162l-4.36251 11.501162c-1.586367 3.569326-3.569326 7.138652-5.155693 11.10457-0.793184 1.982959-1.586367 3.569326-2.776143 5.552285l-3.172734 5.155694c-1.982959 3.569326-3.965918 7.138652-6.345469 10.311386-9.121611 13.484121-20.622773 24.985283-32.917118 35.693261-12.690937 9.914795-26.57165 19.036406-41.245546 25.381875-1.982959 0.793184-3.569326 1.586367-5.552285 2.37955l-5.552285 1.982959-5.552285 1.982959c-0.793184 0.396592-1.982959 0.793184-3.172735 0.793184l-3.569326 0.793183-13.484121 3.172735c-4.759101 0.793184-9.121611 1.189775-13.880712 1.982959l-7.138653 0.793183-7.138652 0.396592-13.880712 0.396592h-27.364834l-55.126259 0.396592-109.855925 0.793183H374.382649l0.396592 0.793184 2.379551 2.379551 4.759101 5.155693 9.518203 9.914795 19.036406 19.829589 38.072812 40.055771 76.145623 80.111541 286.339272 300.219985z" fill="#1296db" p-id="1217"></path><path d="M824.910922 932.387297l-13.880713 13.087529-285.546088-301.013168-76.145624-80.111542-38.072811-40.055771-19.036406-19.829589-9.518203-9.914795-4.759102-5.155693-2.379551-2.379551-0.396591-0.793183H377.555383l109.855926-0.793184 55.126259-0.396592h27.364833l13.880713-0.396591 7.138652-0.396592 7.138652-0.793184c4.759101-0.793184 9.121611-1.189775 13.880713-1.982959l13.484121-3.172734 3.569326-0.793184c1.189775-0.396592 2.379551-0.396592 3.172734-0.793183l5.552285-1.982959 5.552285-1.982959c1.982959-0.793184 3.965918-1.189775 5.552285-2.379551 15.070488-6.345469 28.554609-15.46708 41.245546-25.381874 12.294345-10.707978 23.398916-22.605732 32.917119-35.693261 2.379551-3.172734 4.36251-6.74206 6.345469-10.311387l3.172734-5.155693c1.189775-1.586367 1.586367-3.569326 2.776142-5.552285 1.586367-3.569326 3.569326-7.138652 5.155694-11.10457l4.362509-11.501162c1.586367-3.569326 2.379551-7.535244 3.569326-11.501162l1.586368-5.948877c0.396592-1.982959 1.189775-3.965918 1.189775-5.948877l1.982959-11.897754 0.396592-3.172734v-3.172734l0.396591-5.948877 0.396592-5.948877v-6.345468l-0.793183-12.294346c0-1.982959-0.396592-3.965918-0.793184-5.948877l-0.793183-5.948877c-0.793184-3.965918-1.189775-7.931836-2.379551-11.897753l-3.172735-11.897754c-1.189775-3.965918-2.776143-7.535244-3.965917-11.501162l-1.982959-5.552285-2.776143-5.552285c-1.982959-3.569326-3.569326-7.535244-5.155693-11.10457-7.931836-14.277304-17.846631-27.364833-28.951201-38.865995-2.776143-2.776143-5.948877-5.552285-8.725019-8.328428l-4.36251-3.965918-4.759101-3.569326c-3.172734-2.379551-6.345469-5.155693-9.914795-7.138652l-10.311387-6.345469c-14.277304-7.535244-29.347792-14.277304-45.211464-17.84663l-5.948876-1.586367-5.948877-0.793184-11.897754-1.982959-12.294345-0.793184-5.948877-0.396591H314.893881v-19.036406h262.543764l6.742061 0.396592 13.48412 0.793183 13.484121 1.982959c2.379551 0.396592 4.36251 0.793184 6.742061 1.189775l6.345468 1.586368c17.450039 3.965918 34.106894 11.10457 49.970566 19.829589l11.501162 7.138652c3.965918 2.379551 7.138652 5.155693 10.707978 7.931836l5.552285 3.965918 5.155693 4.36251c3.172734 3.172734 6.74206 5.948877 9.914795 9.121611 12.690937 13.087529 23.398916 27.364833 32.123935 43.228505l5.948877 11.897753 2.776142 5.948877 2.379551 6.345469c1.586367 4.36251 3.172734 8.328428 4.36251 12.690937l3.172734 13.087529c1.189775 4.36251 1.586367 8.725019 2.379551 13.087529l1.189775 6.742061c0.396592 2.379551 0.793184 4.36251 0.793184 6.74206l0.793183 13.484121v6.345469l-0.396591 6.74206-0.396592 6.74206v3.172735l-0.396592 3.172734-1.982959 13.484121c-0.396592 2.379551-0.793184 4.36251-1.586367 6.74206l-1.586367 6.345469c-1.189775 4.36251-1.982959 8.725019-3.965918 13.087529l-4.759102 12.690937c-1.982959 3.965918-3.965918 7.931836-5.948876 12.294346-1.189775 1.982959-1.982959 3.965918-3.172735 5.948877l-3.569326 5.948876c-2.379551 3.965918-4.36251 7.931836-7.138652 11.501162-10.311387 14.673896-22.605732 27.761425-36.089853 39.659179-14.277304 11.10457-29.347792 21.019365-45.608056 28.158017-1.982959 1.189775-3.965918 1.586367-6.345468 2.379551l-6.345469 2.379551-6.345469 2.37955c-1.982959 0.793184-3.965918 1.189775-5.948876 1.586368l-11.501162 2.776142c-3.965918 0.793184-7.931836 1.189775-11.501162 1.982959l-5.948877 0.793184-5.948877 0.396591-11.897754 0.396592H418.007746h-0.396592l0.396592 0.396592 1.982959 1.982959 3.965918 4.36251 8.328427 8.725019 16.260264 17.053447 32.520526 34.503486 65.041054 68.610379 278.804028 294.6677z" fill="#1296db" p-id="1218"></path><path d="M838.395043 919.299768l-13.880713 13.087529-278.407436-293.874516-65.041054-68.61038-32.520526-34.503485-16.260264-17.053447-8.328427-8.72502-3.965918-4.362509-1.982959-1.982959-0.396592-0.396592h167.758327l11.897754-0.396592 5.948877-0.396592 5.948876-0.793183c3.965918-0.793184 7.931836-1.189775 11.501162-1.982959l11.501162-2.776143c1.982959-0.396592 3.569326-0.793184 5.948877-1.586367l6.345469-2.379551 6.345468-2.37955c1.982959-0.793184 4.36251-1.586367 6.345469-2.379551 16.656855-7.138652 31.727343-17.053447 45.608056-28.158017 13.484121-11.897754 26.175058-24.985283 36.089852-39.659179 2.776143-3.569326 4.759101-7.535244 7.138653-11.501162l3.569326-5.948877c1.189775-1.982959 1.982959-3.965918 3.172734-5.948877 1.982959-3.965918 3.965918-7.931836 5.948877-12.294345l4.759101-12.690937c1.586367-4.36251 2.776143-8.725019 3.965918-13.087529l1.586367-6.345469c0.396592-1.982959 1.189775-4.36251 1.586368-6.742061l1.982959-13.48412 0.396591-3.172735v-3.172734l0.396592-6.74206 0.396592-6.742061v-6.345468l-0.793184-13.484121c0-2.379551-0.396592-4.36251-0.793183-6.742061l-1.189776-6.74206c-0.793184-4.36251-1.189775-8.725019-2.37955-13.087529l-3.172735-13.087529c-1.189775-4.36251-3.172734-8.328428-4.362509-12.690937l-2.379551-6.345469-2.776143-5.948877c-1.982959-3.965918-3.965918-8.328428-5.948876-11.897754-8.725019-15.46708-19.432998-30.140976-32.123935-43.228505-3.172734-3.172734-6.74206-5.948877-9.914795-9.121611l-5.155693-4.362509-5.552285-3.965918c-3.569326-2.776143-7.138652-5.552285-10.707979-7.931836l-11.501162-7.138652c-15.863672-8.725019-32.520527-15.863672-49.970565-19.82959l-6.345469-1.586367c-2.379551-0.396592-4.36251-0.793184-6.74206-1.189775l-13.484121-1.982959-13.484121-0.793184-6.74206-0.396592H314.893881V95.182029h262.543764l7.138652 0.396592 14.673897 0.793184c4.759101 0.793184 9.914795 1.586367 14.673896 1.982959l7.138652 1.189775 7.138652 1.982959c19.432998 4.36251 37.67622 12.294345 54.729667 21.812548L695.621998 130.87529c3.965918 2.776143 7.931836 5.948877 11.897754 8.72502l5.948877 4.36251 5.552285 4.759101c3.569326 3.172734 7.535244 6.74206 10.707978 9.914795 13.880713 14.277304 25.381875 30.140976 35.29667 47.194423 2.379551 4.36251 4.36251 8.725019 6.345468 13.087529 1.189775 2.379551 1.982959 4.36251 3.172735 6.74206l2.37955 6.742061c1.586367 4.759101 3.569326 9.121611 4.759102 13.880712l3.569326 14.277305c1.586367 4.759101 1.982959 9.518203 2.776142 14.673896l1.189776 7.138652c0.396592 2.379551 0.793184 4.759101 0.793183 7.535244l0.793184 14.673896v7.138652l-0.396592 7.535244-0.396592 7.535244-0.396591 3.569326-0.396592 3.569327-2.379551 14.673896c-0.396592 2.379551-0.793184 4.759101-1.586367 7.138652l-1.982959 7.138652c-1.189775 4.759101-2.379551 9.518203-4.36251 14.277305l-5.155693 13.880712c-1.982959 4.36251-4.36251 8.725019-6.345469 13.484121-1.189775 2.379551-1.982959 4.36251-3.172734 6.742061l-3.965918 6.345468c-2.776143 4.36251-5.155693 8.725019-7.931836 12.690937-11.10457 16.260263-24.985283 30.537568-39.659179 43.625097-15.46708 12.294345-32.123935 23.002324-50.367157 30.93416-2.379551 1.189775-4.36251 1.982959-6.74206 2.776142l-6.742061 2.379551-6.74206 2.379551c-0.396592 0-1.189775 0.396592-1.586367 0.396592l-1.189776 0.396591-2.37955 0.793184-9.518203 2.379551c-3.172734 0.396592-6.345469 1.189775-9.914795 1.586367l-4.759102 0.793183-4.759101 0.396592-9.914795 0.396592H460.046476h-0.396592l0.396592 0.396592 1.586367 1.982959 3.569326 3.569326 6.74206 7.138652 13.484121 14.277304 26.968242 28.554609 54.333075 57.109218 271.665376 286.735864z" fill="#1296db" p-id="1219"></path><path d="M852.275755 906.212239l-13.880712 13.087529-271.665376-286.339272-54.333075-57.109218L485.42835 547.296669l-13.484121-14.277304-6.74206-7.138652-3.569326-3.569326-1.586367-1.982959-0.396592-0.396592H599.250194l9.914794-0.396592 4.759102-0.396592 4.759101-0.793183c3.172734-0.396592 6.345469-0.793184 9.914795-1.586368l9.518203-2.37955 2.379551-0.793184 1.189775-0.396592c0.396592 0 1.189775-0.396592 1.586367-0.396591l6.742061-2.379551 6.74206-2.379551c2.379551-0.793184 4.759101-1.586367 6.742061-2.776142 18.243222-7.931836 34.900077-18.639814 50.367157-30.93416 15.070488-12.690937 28.554609-27.364833 39.659179-43.625097 2.776143-3.965918 5.155693-8.328428 7.931835-12.690937l3.965918-6.345469c1.189775-1.982959 2.379551-4.36251 3.172735-6.74206 1.982959-4.36251 4.36251-8.725019 6.345468-13.484121l5.155694-13.880713c1.982959-4.759101 3.172734-9.518203 4.362509-14.277304l1.982959-7.138652c0.793184-2.379551 1.189775-4.759101 1.586367-7.138652l2.379551-14.673897 0.396592-3.569326 0.396592-3.569326 0.396591-7.535244 0.396592-7.535244v-7.138652l-0.793183-14.673896c0-2.379551-0.396592-4.759101-0.793184-7.535244l-1.189775-7.138652c-0.793184-4.759101-1.189775-9.914795-2.776143-14.673897l-3.569326-14.277304c-1.586367-4.759101-3.172734-9.121611-4.759101-13.880713l-2.379551-6.74206c-1.189775-2.379551-1.982959-4.36251-3.172734-6.742061-1.982959-4.36251-4.36251-9.121611-6.345469-13.087529-9.518203-17.053447-21.415957-32.917119-35.296669-47.194422-3.569326-3.569326-7.138652-6.74206-10.707979-9.914795l-5.552285-4.759102-5.948877-4.362509c-3.965918-2.776143-7.931836-5.948877-11.897753-8.72502L683.724245 122.943455c-17.450039-9.518203-35.693261-17.450039-54.729667-21.812549l-7.138652-1.982959-7.138653-1.189775c-4.759101-0.793184-9.914795-1.586367-14.673896-1.982959l-14.673896-0.793184-7.138652-0.396591H314.893881v-19.036406h262.543764l7.931836 0.396592 15.863672 0.793183c5.155693 0.793184 10.707978 1.586367 15.863671 2.379551 2.776143 0.396592 5.155693 0.793184 7.931836 1.189775l7.931836 1.982959c21.019365 4.759101 40.848954 13.484121 59.88536 23.795508l13.880713 8.328427c4.36251 2.776143 8.725019 6.345469 13.087529 9.518203l6.345468 4.759102 5.948877 5.552285c3.965918 3.569326 7.931836 7.138652 11.897754 11.10457 15.070488 15.46708 27.761425 32.917119 38.469403 51.556932l7.138653 14.277305 3.569326 7.138652 2.776142 7.535244c1.982959 5.155693 3.965918 9.914795 5.155693 15.070488l3.965918 15.46708c1.586367 5.155693 1.982959 10.707978 2.776143 15.863671l1.189775 7.931836c0.396592 2.776143 0.793184 5.155693 0.793184 7.931836l0.793183 15.863671v7.931836l-0.396591 7.931836-0.396592 7.931836-0.396592 3.965918-0.396592 3.965918-2.379551 15.863671c-0.396592 2.776143-1.189775 5.155693-1.586367 7.931836l-1.982959 7.931836c-1.189775 5.155693-2.776143 10.311387-4.759101 15.467079l-5.552285 15.070488c-2.379551 4.759101-4.759101 9.914795-6.742061 14.673897l-3.569326 7.138652-3.965918 6.74206c-2.776143 4.36251-5.552285 9.121611-8.725019 13.484121-12.294345 17.846631-26.968242 33.31371-43.228505 47.194423-16.656855 13.484121-34.900077 24.985283-54.729667 33.710302-2.379551 1.189775-4.759101 1.982959-7.535244 3.172734l-7.535244 2.776143-7.535244 2.776143-1.586367 0.793183-0.793184 0.396592-1.982959 0.396592-7.535244 1.982959-7.931835 1.189775-3.965918 0.396592-3.965918 0.396592-7.931836 0.396591h-111.045701-0.396592l0.396592 0.396592 1.189775 1.586367 2.776143 2.776143 5.552285 5.552285 10.707978 11.501162 21.812549 23.002324 43.228505 45.608055 264.526723 279.993804z" fill="#1296db" p-id="1220"></path><path d="M866.156468 893.12471l-13.880713 13.087529-264.923315-279.20062-43.228505-45.608056-21.812548-23.002324-10.707979-11.501162-5.552285-5.552285-2.776142-2.776142-1.189776-1.586367-0.396592-0.396592h111.838885l7.931836-0.396592 3.965918-0.396592 3.965918-0.396591 7.931835-1.189776 7.535244-1.982959 1.982959-0.396592 0.793184-0.396591 1.586367-0.793184 7.535244-2.776142 7.535244-2.776143c2.379551-0.793184 5.155693-1.982959 7.535244-3.172734 19.829589-8.725019 38.072812-20.226181 54.729667-33.710302 16.260263-13.880713 30.93416-29.744384 43.228505-47.194423 3.172734-4.36251 5.552285-9.121611 8.725019-13.484121l3.965918-6.742061 3.569326-7.138652c2.379551-4.759101 4.759101-9.518203 6.742061-14.673896l5.552285-15.070488c1.982959-5.155693 3.172734-10.311387 4.759101-15.46708l1.982959-7.931836c0.793184-2.776143 1.189775-5.155693 1.586367-7.931835l2.379551-15.863672 0.396592-3.965918 0.396592-3.965918 0.396592-7.931835 0.396591-7.931836v-7.931836l-0.793183-15.863672c0-2.776143-0.396592-5.155693-0.793184-7.931835l-1.189775-7.931836c-0.793184-5.155693-1.586367-10.707978-2.776143-15.863672l-3.965918-15.46708c-1.586367-5.155693-3.569326-10.311387-5.155693-15.070488l-2.776142-7.535244-3.569326-7.138652c-2.379551-4.759101-4.759101-9.914795-7.138653-14.277304-10.707978-18.639814-23.398916-36.089853-38.469403-51.556933-3.569326-3.965918-7.931836-7.138652-11.897754-11.10457l-5.948877-5.552285-6.345468-4.759101c-4.36251-3.172734-8.328428-6.345469-13.087529-9.518203l-13.880713-8.328428c-18.639814-10.311387-38.865995-19.036406-59.88536-23.795507l-7.931836-1.982959c-2.776143-0.396592-5.155693-0.793184-7.931836-1.189776-5.155693-0.793184-10.707978-1.586367-15.863671-2.37955l-15.863672-0.793184-7.931836-0.396592H314.893881v-19.036406h262.543764l8.328428 0.396592 17.450039 0.793184c5.948877 0.793184 11.501162 1.586367 17.053446 2.379551 2.776143 0.396592 5.552285 0.793184 8.72502 1.586367l8.328427 1.982959c22.605732 5.155693 44.41828 14.277304 64.644462 25.381874l15.070488 9.121611c4.759101 3.172734 9.518203 6.74206 14.277304 10.311387l6.742061 5.155693 6.345469 5.948877c4.36251 3.965918 8.725019 7.535244 12.690937 11.897754 16.260263 16.656855 30.140976 35.296669 41.642138 55.52285 2.776143 5.155693 5.155693 10.311387 7.535244 15.46708 1.189775 2.776143 2.379551 5.155693 3.569326 7.931836l3.172734 8.328427c1.982959 5.552285 3.965918 10.707978 5.948877 16.656855l4.36251 17.053447c1.586367 5.552285 2.379551 11.501162 3.172734 17.053447l1.189775 8.72502c0.396592 2.776143 0.793184 5.552285 0.793184 8.725019l0.793183 17.450039v8.725019l-0.396591 8.725019-0.396592 8.72502-0.396592 4.36251-0.793183 4.362509-2.776143 17.053447c-0.396592 2.776143-1.189775 5.552285-1.982959 8.328428l-1.982959 8.328427c-1.586367 5.552285-2.776143 11.10457-5.155693 16.656855l-5.948877 16.260264c-2.379551 5.155693-4.759101 10.707978-7.535244 15.863671-1.189775 2.776143-2.379551 5.155693-3.965918 7.931836l-4.36251 7.535244c-3.172734 4.759101-5.948877 9.914795-9.121611 14.673896-13.087529 19.036406-29.347792 36.089853-46.797831 51.160341-18.243222 14.277304-37.67622 26.968242-59.092176 36.486445-2.776143 1.189775-5.155693 2.379551-7.931836 3.172734l-7.931836 3.172734-7.931836 2.776143-1.982959 0.793184h-0.793183l-1.586368 0.396591-5.552285 1.586368-5.948876 0.793183-2.776143 0.396592h-2.776142l-5.948877 0.396592h-83.284276-0.396592l0.396592 0.396591 1.189775 1.189776 1.982959 1.982959 3.965918 4.362509 8.328428 8.72502 16.260263 17.053447 32.520527 34.503485 257.784663 270.872193z" fill="#1296db" p-id="1221"></path><path d="M880.03718 880.03718l-13.880712 13.08753-257.784663-271.665376-32.520527-34.503486-16.260263-17.053447-8.328428-8.725019-3.965918-4.36251-1.982959-1.982959-1.189775-1.189775-0.396592-0.396592H628.201394l5.948877-0.396592h2.776143l2.776142-0.396591 5.948877-0.793184 5.552285-1.586367 1.586367-0.396592h0.793184l1.982959-0.793184 7.931836-2.776142 7.931835-3.172734c2.776143-1.189775 5.552285-1.982959 7.931836-3.172735 21.415957-9.518203 41.245546-21.812548 59.092177-36.486444 17.450039-15.070488 33.710302-32.123935 46.797831-51.160341 3.569326-4.759101 6.345469-9.914795 9.121611-14.673896l4.36251-7.535244c1.586367-2.379551 2.776143-5.155693 3.965918-7.931836 2.379551-5.155693 5.155693-10.311387 7.535244-15.863672l5.948876-16.260263c1.982959-5.552285 3.569326-11.10457 5.155694-16.656855l1.982959-8.328428c0.793184-2.776143 1.586367-5.552285 1.982959-8.328427l2.776142-17.053447 0.793184-4.36251 0.396591-4.36251 0.396592-8.725019 0.396592-8.725019v-8.72502l-0.793184-17.450039c0-2.776143-0.396592-5.948877-0.793183-8.725019l-1.189775-8.725019c-0.793184-5.552285-1.586367-11.501162-3.172735-17.053447l-4.362509-17.053447c-1.586367-5.552285-3.965918-11.10457-5.948877-16.656855l-3.172735-8.328428c-1.189775-2.776143-2.379551-5.155693-3.569326-7.931836-2.379551-5.155693-5.155693-10.707978-7.535244-15.467079-11.501162-20.226181-25.381875-38.865995-41.642138-55.522851-3.965918-3.965918-8.328428-7.931836-12.690937-11.897754l-6.345469-5.948876-6.74206-5.155694c-4.759101-3.569326-9.121611-7.138652-14.277304-10.311386l-15.070488-9.121611c-20.226181-11.10457-42.03873-20.622773-64.644462-25.381875l-8.328428-1.982959c-2.776143-0.396592-5.552285-0.793184-8.725019-1.586367-5.552285-0.793184-11.501162-1.982959-17.053447-2.379551l-17.450039-0.793183-8.328427-0.396592H314.893881V38.072812h262.543764l9.121611 0.396592c6.345469 0.396592 12.294345 0.793184 18.639814 1.189775 6.345469 0.793184 12.294345 1.586367 18.639815 2.776142 3.172734 0.396592 6.345469 0.793184 9.121611 1.586368l9.121611 2.37955c24.588691 5.552285 47.591015 15.46708 69.403563 27.364834 5.552285 3.172734 10.707978 6.345469 15.863672 9.914795 5.155693 3.569326 10.311387 7.138652 15.070488 11.10457l7.535244 5.552285 7.138652 6.345468c4.759101 4.36251 9.121611 8.328428 13.484121 12.690938 17.450039 17.846631 32.520527 38.072812 44.814872 59.88536l8.328427 16.656855c1.189775 2.776143 2.776143 5.552285 3.965918 8.328427l3.172735 8.72502c1.982959 5.948877 4.36251 11.897754 6.345468 17.84663 1.586367 5.948877 3.172734 12.294345 4.759102 18.243223 1.586367 5.948877 2.379551 12.294345 3.569326 18.243222l1.189775 9.121611c0.396592 3.172734 0.793184 6.345469 0.793184 9.121611 0.396592 6.345469 0.793184 12.294345 0.793183 18.639814v9.518203l-0.396591 9.518203-0.396592 9.518203-0.396592 4.759102-0.793184 4.759101c-0.793184 6.345469-1.982959 12.294345-2.776142 18.639814-0.396592 3.172734-1.189775 5.948877-1.982959 9.121611l-2.379551 9.121612c-1.586367 5.948877-3.172734 12.294345-5.552285 17.84663-1.982959 5.948877-4.36251 11.897754-6.345468 17.450039-2.379551 5.552285-5.155693 11.501162-7.931836 17.053447-1.586367 2.776143-2.776143 5.552285-4.36251 8.328427l-4.759101 7.931836c-3.172734 5.155693-6.345469 10.707978-9.914795 15.863672-14.277304 20.622773-31.330751 38.865995-50.367157 55.126258-19.432998 15.46708-40.848954 28.951201-63.851278 39.262588-2.776143 1.586367-5.552285 2.379551-8.72502 3.569326l-8.725019 3.172734-8.72502 3.172734-1.982959 0.793184h-0.396591l-0.793184 0.396592-3.965918 0.793183-3.965918 0.793184c-5.155693 0.793184-10.311387 0.396592-15.863671 0.396592h-47.987607s-0.396592 0 0 0l0.793184 0.793183 1.189775 1.586367 2.776143 2.776143 5.552285 5.552285 10.707978 11.501162 21.812548 23.002324 252.232378 263.733539z" fill="#1296db" p-id="1222"></path><path d="M907.402014 853.862122l-13.880713 13.087529-243.90395-257.388071-10.707978-11.501162-5.552285-5.552285-2.776143-2.776142-1.189775-1.586367-0.793184-0.793184c-0.396592-0.396592-0.793184-0.396592 0-0.396592h23.795507c2.776143 0 5.155693 0 7.931836-0.396592 1.189775 0 2.776143-0.396592 3.965918-0.793183h0.793184l1.982959-0.793184 9.121611-3.172734 9.121611-3.569326c3.172734-1.189775 6.345469-2.379551 9.121611-3.965918 24.588691-10.707978 47.194423-25.381875 68.213788-42.03873 20.226181-17.450039 38.865995-36.883036 53.936483-58.695585 3.965918-5.552285 7.138652-11.10457 10.707979-17.053447l5.155693-8.725019c1.586367-2.776143 3.172734-5.948877 4.362509-9.121611 2.776143-5.948877 5.948877-11.897754 8.72502-18.243222l7.138652-19.036406c2.379551-6.345469 3.965918-12.690937 5.948877-19.432998l2.379551-9.914795c0.793184-3.172734 1.586367-6.345469 1.982959-9.914794 1.189775-6.74206 1.982959-13.087529 3.172734-19.82959l0.793183-5.155693 0.396592-5.155693 0.396592-9.914795 0.396592-9.914795v-10.311386c-0.396592-6.74206-0.793184-13.484121-1.189776-19.82959 0-3.172734-0.396592-6.74206-1.189775-9.914795l-1.586367-9.914794c-1.189775-6.74206-1.982959-13.087529-3.569326-19.82959-1.586367-6.345469-3.172734-13.087529-5.155693-19.432997-1.982959-6.345469-4.36251-12.690937-6.742061-19.036406l-3.569326-9.518203c-1.189775-3.172734-2.776143-5.948877-4.36251-9.121611-2.776143-5.948877-5.552285-12.294345-8.725019-17.846631-13.087529-23.398916-28.951201-44.814872-47.591015-63.851278-4.759101-4.759101-9.518203-9.121611-14.673896-13.484121l-7.535244-6.74206-7.931836-5.948877c-5.552285-3.965918-10.707978-7.931836-16.260263-11.897754-5.552285-3.569326-11.501162-7.138652-17.053447-10.311386-23.398916-13.087529-48.384198-23.398916-74.559256-29.347793l-9.914795-2.37955c-3.172734-0.793184-6.74206-1.189775-9.914795-1.586368-6.74206-1.189775-13.087529-1.982959-19.829589-2.776142-6.74206-0.396592-13.484121-0.793184-19.82959-1.189775l-9.518203-0.396592H314.893881V0h262.543764l10.311387 0.396592 21.415956 1.189775c7.138652 0.793184 14.277304 1.982959 21.019365 3.172734 3.569326 0.396592 7.138652 1.189775 10.707979 1.982959l10.311386 2.379551c27.761425 6.345469 54.333075 17.450039 79.318358 31.330752 5.948877 3.569326 12.294345 7.535244 18.243222 11.10457 5.948877 3.965918 11.501162 8.328428 17.450039 12.690937l8.328428 6.345468 7.931835 7.138653c5.155693 4.759101 10.707978 9.518203 15.46708 14.673896 19.829589 20.226181 36.883036 43.228505 50.763749 68.213788 3.569326 6.345469 6.345469 12.690937 9.518203 19.036406 1.586367 3.172734 3.172734 6.345469 4.36251 9.518203l3.965918 9.914794c2.379551 6.74206 5.155693 13.484121 7.138652 20.226181 1.982959 6.74206 3.569326 13.880713 5.552285 20.622774 1.982959 6.74206 2.776143 13.880713 3.965918 21.019364l1.586367 10.707979 1.189775 10.707978 1.189776 21.415957v10.311386l-0.396592 10.707978-0.793184 10.707979-0.396591 5.155693-0.793184 5.155693c-0.793184 7.138652-1.982959 14.277304-3.172734 21.019365-0.396592 3.569326-1.189775 7.138652-2.379551 10.311387l-2.776143 10.311386c-1.982959 6.74206-3.569326 13.880713-5.948876 20.622773-2.379551 6.74206-4.759101 13.484121-7.535244 20.226181-2.776143 6.345469-5.948877 13.087529-9.121612 19.432998l-4.759101 9.518203-5.552285 9.121611c-3.569326 5.948877-7.138652 12.294345-11.501162 17.846631-16.260263 23.398916-35.693261 44.41828-57.505809 62.661502-22.20914 17.846631-46.401239 33.31371-72.576298 44.418281-3.172734 1.586367-6.345469 2.776143-9.914795 3.965918l-9.914794 3.569326-11.897754 4.36251 237.16189 250.64601z" fill="#1296db" p-id="1223"></path><path d="M893.917893 866.949651l-13.880713 13.087529-251.042602-264.526723-21.812549-23.002324-10.707978-11.501162-5.552285-5.552285-2.776142-2.776142-1.189776-1.586367-0.793183-0.793184h47.987606c5.155693 0 10.707978 0 15.863672-0.396592l3.965918-0.793183 3.965917-0.793184 0.793184-0.396592h0.396592l1.982959-0.793183 8.725019-3.172735 8.72502-3.172734c2.776143-1.189775 5.948877-1.982959 8.725019-3.569326 23.002324-9.914795 44.021689-23.398916 63.851278-39.262587 19.036406-16.260263 36.089853-34.503486 50.367157-55.126259 3.569326-5.155693 6.74206-10.707978 9.914795-15.863671l4.759101-7.931836c1.586367-2.776143 2.776143-5.552285 4.36251-8.328428 2.776143-5.552285 5.552285-11.10457 7.931836-17.053447 2.379551-5.948877 4.36251-11.897754 6.345468-17.450038 2.379551-5.948877 3.965918-11.897754 5.552286-17.846631l2.37955-9.121611c0.793184-3.172734 1.586367-5.948877 1.982959-9.121611 1.189775-6.345469 1.982959-12.294345 2.776143-18.639814l0.793183-4.759102 0.396592-4.759101 0.396592-9.518203 0.396592-9.518203v-9.518203c-0.396592-6.345469-0.396592-12.294345-0.793184-18.639814 0-3.172734-0.396592-6.345469-0.793183-9.121611l-1.189776-9.121612c-1.189775-6.345469-1.586367-12.294345-3.569326-18.243222-1.586367-5.948877-3.172734-12.294345-4.759101-18.243222-1.982959-5.948877-3.965918-11.897754-6.345469-17.846631l-3.172734-8.725019c-1.189775-2.776143-2.776143-5.552285-3.965918-8.328428-2.776143-5.552285-5.552285-11.501162-8.328428-16.656855-12.294345-21.812548-27.364833-42.03873-44.814872-59.88536-4.36251-4.36251-9.121611-8.725019-13.484121-12.690937l-7.138652-6.345469-7.535244-5.552285c-5.155693-3.569326-9.914795-7.535244-15.070488-11.10457-5.155693-3.172734-10.707978-6.74206-15.863672-9.914795-21.812548-11.897754-45.211464-22.20914-69.403563-27.364833l-9.121611-2.379551c-3.172734-0.396592-6.345469-1.189775-9.121611-1.586367-6.345469-0.793184-12.294345-1.982959-18.639814-2.776143-6.345469-0.396592-12.294345-0.793184-18.639814-1.189775l-9.121611-0.396592H314.893881V19.036406h262.543764l9.518203 0.396592c6.74206 0.396592 13.484121 0.793184 19.82959 1.189775 6.74206 0.793184 13.087529 1.982959 19.829589 2.776143 3.172734 0.396592 6.74206 1.189775 9.914795 1.586367l9.914795 2.37955c26.175058 5.948877 51.160341 16.656855 74.559256 29.347793 5.552285 3.569326 11.501162 6.74206 17.053447 10.311386 5.552285 3.569326 10.707978 7.931836 16.260263 11.897754l7.931836 5.948877 7.535244 6.74206c4.759101 4.36251 9.914795 8.725019 14.673896 13.484121 18.639814 19.036406 34.503486 40.848954 47.591015 63.851278 3.172734 5.948877 5.948877 11.897754 8.725019 17.846631 1.586367 3.172734 2.776143 5.948877 4.36251 9.121611l3.569326 9.518203c2.379551 6.345469 4.759101 12.690937 6.742061 19.036406 1.586367 6.345469 3.569326 13.087529 5.155693 19.432997 1.982959 6.345469 2.776143 13.087529 3.569326 19.82959l1.586367 9.914795c0.396592 3.172734 0.793184 6.74206 1.189775 9.914794 0.396592 6.74206 0.793184 13.484121 1.189776 19.82959v10.311386l-0.396592 9.914795-0.396592 9.914795-0.396592 5.155693-0.793183 5.155693c-0.793184 6.74206-1.982959 13.087529-3.172734 19.82959-0.396592 3.172734-1.189775 6.74206-1.982959 9.914795l-2.379551 9.914794c-1.586367 6.345469-3.172734 13.087529-5.948877 19.432998l-7.138652 19.036406c-2.776143 5.948877-5.552285 12.294345-8.72502 18.243222-1.586367 3.172734-2.776143 5.948877-4.362509 9.121611l-5.155693 8.72502c-3.569326 5.552285-6.74206 11.501162-10.707979 17.053447-15.070488 21.812548-33.710302 41.642138-53.936483 58.695584-21.019365 16.656855-43.625097 30.93416-68.213788 42.03873-3.172734 1.586367-5.948877 2.776143-9.121611 3.965918l-9.121611 3.569326-9.121611 3.172734-1.982959 0.793184h-0.793184c-1.189775 0.396592-2.379551 0.793184-3.965918 0.793184-2.776143 0.396592-5.155693 0.396592-7.931836 0.396591h-23.795507c-0.396592 0 0 0.396592 0 0.396592l0.793184 0.793184 1.189775 1.586367 2.776143 2.776142 5.552285 5.552285 10.707978 11.501162 244.300542 255.801704z" fill="#1296db" p-id="1224"></path><path d="M240.334624 0.793184v1020.430673" fill="#1296db" p-id="1225"></path><path d="M116.597986 0.793184h19.036406v1020.827265H116.597986z" fill="#1296db" p-id="1226"></path><path d="M135.634392 0.793184h19.036406v1020.827265H135.634392z" fill="#1296db" p-id="1227"></path><path d="M154.670798 0.793184h19.036406v1020.827265H154.670798z" fill="#1296db" p-id="1228"></path><path d="M173.707204 0.793184h19.036406v1020.827265h-19.036406z" fill="#1296db" p-id="1229"></path><path d="M192.74361 0.793184H211.780015v1020.827265h-19.036405z" fill="#1296db" p-id="1230"></path><path d="M211.780015 0.793184h19.036406v1020.827265H211.780015z" fill="#1296db" p-id="1231"></path><path d="M230.816421 0.793184h19.036406v1020.827265h-19.036406z" fill="#1296db" p-id="1232"></path><path d="M249.852827 0.793184h19.036406v1020.827265h-19.036406z" fill="#1296db" p-id="1233"></path><path d="M268.889233 0.793184h19.036406v1020.827265h-19.036406z" fill="#1296db" p-id="1234"></path><path d="M287.925639 0.793184H306.962045v1020.827265h-19.036406z" fill="#1296db" p-id="1235"></path><path d="M306.962045 0.793184h19.036406v1020.827265H306.962045zM345.034857 0.793184h19.036406v1020.827265h-19.036406z" fill="#1296db" p-id="1236"></path><path d="M325.998451 0.793184h19.036406v1020.827265h-19.036406z" fill="#1296db" p-id="1237"></path></svg>